<?xml version="1.0" encoding="utf-8"?>
<svg xmlns="http://www.w3.org/2000/svg" viewBox="5.1731 263.3046 512.01 128.21" width="512.01px" height="128.21px" xmlns:bx="https://boxy-svg.com">
  <defs>
    <linearGradient id="gradient-4-3" href="#gradient-4" gradientUnits="userSpaceOnUse" x1="256.005" y1="191.89" x2="256.005" y2="320.1"/>
    <linearGradient id="gradient-4" bx:pinned="true">
      <stop offset="0" style="stop-color: rgb(255, 94, 0);"/>
      <stop offset="1" style="stop-color: rgb(153, 203, 52);"/>
    </linearGradient>
    <linearGradient id="gradient-4-2" href="#gradient-4" gradientUnits="userSpaceOnUse" x1="53.795" y1="194" x2="53.795" y2="318"/>
  </defs>
  <path id="XMLID_27_" d="M0,191.89v40.82c1.96,34.23,16.55,56.11,28.48,68.45c12.91,13.33,25.53,18.8,25.67,18.8l0.14,0.14 l0.14-0.14c47.97-30.44,53.16-71.12,53.16-87.25v-40.82H0L0,191.89z M484.65,207.04c-5.05,0-11.5,0.56-13.89,0.56 c-1.4,0-6.59-0.14-8.28-0.14v1.26c2.81,0.56,4.35,1.54,4.35,4.07v37.03c0,2.67-1.54,3.79-4.49,4.21v1.26 c1.54,0,6.45-0.14,7.86-0.14c2.38,0,8.42,0.42,13.47,0.42c17.53,0,28.34-10.38,28.34-24.41C512,216.44,501.62,207.04,484.65,207.04 L484.65,207.04z M222.76,207.04c0,0-0.7,3.09-1.4,4.63l-15.29,36.89c-1.12,2.67-2.81,4.63-5.75,5.33v1.26l6.87-0.14 c0.98,0,5.19,0.14,6.73,0.14v-1.26c-2.67-0.7-3.37-1.82-3.37-3.09c0-0.84,0.42-2.1,0.84-3.09l3.23-8h17.81l3.51,8 c0.56,1.12,0.84,2.24,0.84,3.23c0,1.12-0.7,2.38-3.09,2.95v1.26c1.82,0,7.01-0.14,8.14-0.14c1.26,0,6.73,0.14,8.42,0.14v-1.26 c-3.23-0.84-4.49-2.67-5.61-5.19l-16.27-37.03c-0.7-1.54-1.4-4.63-1.4-4.63L222.76,207.04L222.76,207.04L222.76,207.04z M374.67,207.04c0,0-0.7,3.09-1.4,4.63l-15.29,36.89c-1.12,2.67-2.81,4.63-5.75,5.33v1.26l6.87-0.14c0.98,0,5.19,0.14,6.73,0.14 v-1.26c-2.67-0.7-3.37-1.82-3.37-3.09c0-0.84,0.42-2.1,0.84-3.09l3.23-8h17.81l3.51,8c0.42,1.12,0.84,2.24,0.84,3.23 c0,1.12-0.7,2.38-3.09,2.95v1.26c1.82,0,7.01-0.14,8.14-0.14c1.26,0,6.73,0.14,8.42,0.14v-1.26c-3.23-0.84-4.49-2.67-5.61-5.19 l-16.27-37.03c-0.56-1.54-1.4-4.63-1.4-4.63L374.67,207.04L374.67,207.04z M277.46,207.04c-2.67,0-9.26,0.42-11.64,0.42 c-1.4,0-6.45-0.14-8.14-0.14v1.26c2.95,0.56,4.21,1.96,4.21,4.21v36.75c0,2.52-1.54,3.93-4.21,4.35v1.26c1.54,0,6.73-0.14,8-0.14 c1.54,0,6.73,0.14,8.28,0.14v-1.26c-2.81-0.56-4.49-1.96-4.49-4.35v-16.41c0.84,0.14,1.54,0.14,2.24,0.28 c3.65,0.56,5.75,2.24,7.29,4.35c2.67,3.37,7.15,10.1,9.82,13.19c3.09,3.65,6.17,5.05,9.96,5.05c1.82,0,4.21-0.28,5.61-0.56v-1.12 c-3.09-0.14-6.03-3.23-8.28-5.89c-2.24-2.81-7.86-10.66-9.82-13.05c-1.68-1.96-3.37-2.95-3.37-2.95 c7.29-1.82,12.06-6.03,12.06-12.48C295.28,211.81,288.82,207.04,277.46,207.04L277.46,207.04z M428.4,207.04 c-2.67,0-9.26,0.42-11.64,0.42c-1.4,0-6.45-0.14-8.14-0.14v1.26c2.95,0.56,4.21,1.96,4.21,4.21v36.75c0,2.52-1.54,3.93-4.21,4.35 v1.26c1.54,0,6.73-0.14,8-0.14c1.54,0,6.73,0.14,8.28,0.14v-1.26c-2.81-0.56-4.49-1.96-4.49-4.35v-16.41 c0.84,0.14,1.54,0.14,2.24,0.28c3.65,0.56,5.61,2.24,7.29,4.35c2.67,3.37,7.15,10.1,9.82,13.19c2.95,3.65,6.17,5.05,10.1,5.05 c1.82,0,4.21-0.28,5.61-0.56v-1.12c-3.09-0.14-6.03-3.23-8.28-5.89c-2.24-2.81-7.86-10.66-9.82-13.05 c-1.68-1.96-3.37-2.95-3.37-2.95c7.29-1.82,12.06-6.03,12.06-12.48C446.21,211.81,439.9,207.04,428.4,207.04L428.4,207.04z M142.1,207.32v1.26c2.38,0.56,3.79,1.68,3.79,4.07v37.17c0,2.52-1.54,3.51-3.79,4.07v1.26c1.12,0,6.31-0.14,7.43-0.14 c1.4,0,6.73,0.14,7.86,0.14v-1.26c-2.38-0.56-3.93-1.54-3.93-4.07v-17.53h27.63v17.53c0,2.52-1.54,3.51-3.79,4.07v1.26 c1.12,0,6.45-0.14,7.86-0.14c1.26,0,6.45,0.14,7.57,0.14v-1.26c-2.38-0.56-3.93-1.68-3.93-4.07v-37.17c0-2.52,1.68-3.51,3.93-4.07 v-1.26c-1.12,0-6.31,0.14-7.57,0.14c-1.4,0-6.59-0.14-7.86-0.14v1.26c2.38,0.56,3.79,1.54,3.79,4.07v15.57H153.6v-15.57 c0-2.52,1.68-3.51,3.93-4.07v-1.26c-1.12,0-6.45,0.14-7.86,0.14C148.41,207.47,143.36,207.32,142.1,207.32L142.1,207.32z M302.99,207.32v1.4c2.67,0.56,4.35,2.24,5.33,4.63l18.94,42.08h3.93l17.11-40.54c1.68-3.79,3.37-5.47,6.31-6.31v-1.26 c-1.68,0-6.17,0.14-7.29,0.14c-1.26,0-4.91-0.14-6.45-0.14v1.26c1.96,0.42,3.37,1.4,3.37,2.95c0,1.4-0.7,3.09-1.54,5.33 l-11.64,28.2L318.7,217c-1.26-2.95-1.96-4.49-1.96-5.61c0-1.54,1.82-2.52,3.37-2.81v-1.26c-1.68,0-7.15,0.14-8.42,0.14 C310.43,207.61,304.68,207.47,302.99,207.32L302.99,207.32z M482.54,210.13c13.33,0,21.18,8.7,21.18,21.18 c0,12.06-7.43,20.62-21.74,20.62c-2.52,0-5.75-0.14-7.43-0.56v-40.82C476.37,210.41,479.74,210.13,482.54,210.13L482.54,210.13z M275.22,210.13c7.86,0,12.2,3.93,12.2,10.52c0,4.49-2.81,9.68-11.78,9.68c-2.24,0-4.49-0.14-6.03-0.28v-19.36 C271.15,210.41,273.53,210.13,275.22,210.13L275.22,210.13z M426.15,210.13c7.86,0,12.2,3.93,12.2,10.52 c0,4.49-2.81,9.68-11.78,9.68c-2.24,0-4.49-0.14-6.03-0.28v-19.36C422.22,210.41,424.47,210.13,426.15,210.13L426.15,210.13z M223.04,218.27l7.57,17.81h-14.73L223.04,218.27L223.04,218.27z M374.95,218.27l7.57,17.81H367.8L374.95,218.27z M375.09,277.18 c-5.19,0-8.42,2.67-8.42,6.87c0,4.49,4.77,6.59,7.15,7.72c3.23,1.68,5.89,2.95,5.89,5.75c0,2.67-2.1,4.21-5.47,4.21 c-1.54,0-3.37-0.42-4.49-1.26c-1.12-0.7-1.96-2.1-2.38-3.51h-0.7l0.14,5.33c1.82,0.28,3.93,1.26,7.57,1.26 c5.89,0,9.26-2.95,9.26-7.15c0-4.35-3.79-6.31-7.29-7.86c-3.09-1.4-5.89-2.81-5.89-5.61c0-1.96,1.26-3.93,4.63-3.93 c3.09,0,5.75,1.12,6.73,4.07h0.7v-5.19C380.14,278.02,378.46,277.18,375.09,277.18L375.09,277.18z M330.49,277.32 c-0.42,0.28-1.4,0.28-1.82,0.28h-15.71v0.7c1.54,0.28,2.24,0.98,2.24,2.24v19.36c0,1.4-0.84,2.1-2.24,2.38v0.7 c0.84,0,3.65-0.14,4.35-0.14h7.86c2.81,0,4.21,0,6.59,0.28l0.7-5.19l-0.7-0.14c-0.84,1.96-1.68,3.23-5.05,3.23h-7.43v-10.38h5.33 c0.7,0,1.68,0.14,2.1,0.14c1.12,0.28,1.54,0.98,1.96,2.1h0.7c0-0.84,0-2.67,0-3.23c0-0.56,0-2.24,0-3.09h-0.7 c-0.28,0.98-0.7,1.68-1.96,1.96c-0.42,0.14-1.26,0.14-2.1,0.14h-5.33v-8.84h6.87c3.09,0,3.65,1.26,4.21,2.95h0.7l0.14-5.05 L330.49,277.32L330.49,277.32z M402.17,277.46v5.19h0.7c0.7-2.24,1.96-2.81,3.65-2.81h5.47v20.06c0,1.4-0.7,1.96-2.24,2.38v0.7 c0.84,0,3.79-0.14,4.35-0.14c0.84,0,3.51,0.14,4.35,0.14v-0.7c-1.54-0.28-2.24-0.98-2.24-2.38v-20.06h5.33 c1.68,0,2.95,0.56,3.65,2.81h0.7v-5.19c-1.82,0.14-3.09,0.28-11.78,0.28C405.25,277.74,403.85,277.6,402.17,277.46L402.17,277.46z M349.14,277.46c-1.4,0-4.91,0.14-6.17,0.14c-0.7,0-3.37-0.14-4.21-0.14v0.7c1.54,0.28,2.24,0.98,2.24,2.24v19.36 c0,1.4-0.84,2.1-2.24,2.38v0.7c0.84,0,3.51-0.14,4.21-0.14c0.84,0,3.51,0.14,4.35,0.14v-0.56c-1.54-0.28-2.38-0.98-2.38-2.38v-8.7 c0.42,0,0.84,0.14,1.12,0.14c1.96,0.28,2.95,1.26,3.93,2.24c1.4,1.82,3.65,5.19,5.05,6.87c1.54,1.96,3.23,2.67,5.33,2.67 c0.98,0,2.24-0.14,2.95-0.28v-0.56c-1.68-0.14-3.23-1.68-4.35-3.09c-1.26-1.4-4.07-5.61-5.19-6.87c-0.84-0.98-1.82-1.54-1.82-1.54 c3.93-0.98,6.31-3.23,6.31-6.59C358.68,279.99,355.31,277.46,349.14,277.46L349.14,277.46z M204.52,277.6v0.7 c1.4,0.28,2.1,1.12,2.1,2.24v13.89c0,5.61,3.65,8.84,10.66,8.84c7.57,0,11.08-3.51,11.08-9.4v-13.33c0-1.12,0.7-1.82,2.24-2.1v-0.7 c-0.56,0-2.95,0.14-3.51,0.14c-0.7,0-2.95-0.14-3.51-0.14v0.7c1.54,0.28,2.24,1.12,2.24,2.1v14.17c0,4.49-3.37,6.45-7.72,6.45 c-5.05,0-7.43-2.52-7.43-6.87v-13.75c0-1.12,0.7-1.96,2.1-2.24v-0.7c-0.84,0-3.37,0.14-4.07,0.14 C207.89,277.74,205.36,277.6,204.52,277.6L204.52,277.6z M236.64,277.6v0.7c1.4,0.42,2.38,1.12,2.38,2.67v18.94 c0,0.98-0.7,1.82-2.24,2.1v0.7c0.56,0,2.81-0.14,3.51-0.14s2.81,0.14,3.51,0.14v-0.42c-1.54-0.28-2.24-1.12-2.24-2.1v-16.69 l14.73,17.11c1.82,1.96,2.95,2.67,3.65,2.81h0.98v-22.86c0-1.12,0.7-1.82,2.38-2.1v-0.7c-0.56,0-2.81,0.14-3.51,0.14 c-0.7,0-2.81-0.14-3.51-0.14v0.7c1.54,0.28,2.24,1.12,2.24,2.1v16.55l-16.55-19.5c-0.7,0.14-1.68,0.14-2.38,0.14 S237.48,277.74,236.64,277.6L236.64,277.6z M282.37,277.6v0.7c1.4,0.28,2.24,1.26,2.81,2.38l9.96,22.16h2.1l9.12-21.32 c0.84-1.96,1.82-2.81,3.37-3.23v-0.7c-0.84,0-3.23,0.14-3.79,0.14c-0.56,0-2.67-0.14-3.51-0.14v0.7c0.98,0.14,1.68,0.7,1.68,1.54 c0,0.7-0.42,1.68-0.84,2.81l-6.17,14.87l-6.45-14.87c-0.7-1.54-1.12-2.38-1.12-2.95c0-0.84,0.98-1.26,1.68-1.4v-0.7 c-0.98,0-3.65,0.14-4.21,0.14C286.3,277.74,283.21,277.6,282.37,277.6L282.37,277.6z M427.56,277.6v0.7 c1.26,0.42,2.1,1.4,3.23,3.37l6.45,10.38v8c0,0.84-0.7,1.96-2.24,2.24v0.7c0.98,0,3.51-0.14,4.07-0.14c0.84,0,3.51,0.14,4.21,0.14 v-0.7c-1.4-0.28-2.1-1.4-2.1-2.24v-8l5.61-9.54c1.12-1.82,2.24-3.51,4.07-4.21v-0.7c-0.84,0-2.81,0.14-3.23,0.14 c-0.56,0-2.24-0.14-3.09-0.14v0.7c0.84,0.14,1.12,0.56,1.12,0.98c0,0.56-0.28,1.4-0.84,2.24l-4.77,8.14c0,0-4.63-7.57-4.91-8.14 c-0.42-0.7-0.84-1.4-0.84-1.96c0-0.7,0.42-1.12,1.26-1.26v-0.7c-0.98,0-3.65,0.14-4.35,0.14 C430.92,277.74,428.4,277.6,427.56,277.6L427.56,277.6z M270.45,277.74v0.7c1.54,0.28,2.24,0.98,2.24,2.38v19.22 c0,1.4-0.7,1.96-2.24,2.38v0.7c0.84,0,3.65-0.14,4.35-0.14c0.84,0,3.51,0.14,4.35,0.14v-0.84c-1.54-0.28-2.24-0.98-2.24-2.38 v-19.22c0-1.4,0.84-1.96,2.24-2.38v-0.7c-0.84,0-3.65,0.14-4.35,0.14C273.96,277.74,271.29,277.74,270.45,277.74L270.45,277.74z M389.68,277.74v0.7c1.54,0.28,2.24,0.98,2.24,2.38v19.22c0,1.4-0.7,1.96-2.24,2.38v0.7c0.84,0,3.65-0.14,4.35-0.14 c0.84,0,3.51,0.14,4.35,0.14v-0.84c-1.54-0.28-2.24-0.98-2.24-2.38v-19.22c0-1.4,0.84-1.96,2.24-2.38v-0.7 c-0.84,0-3.65,0.14-4.35,0.14C393.33,277.74,390.52,277.74,389.68,277.74z M348.02,279.15c4.21,0,6.45,2.1,6.45,5.47 c0,2.38-1.54,5.19-6.17,5.19c-1.12,0-2.38,0-3.23-0.14v-10.24C345.92,279.29,347.18,279.15,348.02,279.15z" style="fill: url(&quot;#gradient-4-3&quot;);" transform="matrix(0.9999999999999999, 0, 0, 0.9999999999999999, 5.1731153305339035, 71.41461288056689)"/>
  <path id="XMLID_28_" class="st0" d="M1.82,194v39.14c1.96,33.24,16.13,54.57,27.63,66.63C41.1,311.97,52.6,317.3,54.15,318 c46.57-29.6,51.62-69.16,51.62-84.73v-39.14L1.82,194z" style="fill: url(&quot;#gradient-4-2&quot;);" transform="matrix(0.9999999999999999, 0, 0, 0.9999999999999999, 5.1731153305339035, 71.41461288056689)"/>
  <path id="XMLID_32_" d="M93.28,205.5c-2.95,2.38-7.15,1.26-7.15,1.26c-3.93-0.14-5.19,0.14-5.19,0.14 c-0.84,1.26-2.38,0.14-2.38,0.14c-0.28-0.28-1.4-0.28-1.4-0.28c-7.86,0.56-9.96-0.84-9.96-0.84c-0.28-0.28-1.68-0.28-1.68-0.28 c-0.14,0.28-0.84,1.12-0.84,1.12c-0.28,0.28-3.09,0.14-3.09,0.14c-1.54-0.14-1.68,0.84-1.68,0.84l-0.14,3.51 c0.14,2.1-0.42,1.68-0.42,1.68c-0.42,0.56-2.81,0.42-2.81,0.42c-1.96,0.14-1.68,3.09-1.68,3.09c0.28,1.96,3.23,1.26,3.23,1.26 c1.96,0.14,1.68,1.26,1.68,1.26c-0.14,0.84,0.14,12.06,0.14,12.06c-0.14,1.68-1.4,0.98-1.4,0.98c-4.07-0.14-3.51,2.67-3.51,2.67 c0.14,2.67,3.09,2.24,3.09,2.24c1.96,0,1.82,1.12,1.82,1.12c0.14,0.28-0.14,4.35-0.14,4.35c0.28,1.96,2.1,1.4,2.1,1.4l14.59,0.42 c4.21,3.09,5.19,0.14,5.19,0.14c0.14-0.28,0.84-0.28,0.84-0.28c1.12,0.28,14.31,0.14,14.59,0.14c2.38,0.56,2.38-1.68,2.38-1.68 l0.14-4.35c0.14-0.84,1.4-0.98,1.4-0.98c3.93,0.56,3.65-2.67,3.65-2.67c-0.14-2.52-2.81-2.38-2.81-2.38 c-2.1,0.14-1.96-1.4-1.96-1.4c0.14-1.12,0.14-10.94,0.14-10.94c-0.14-0.56,0.56-1.54,0.56-1.54c4.77,0.42,3.93-2.67,3.93-2.67 c0.42-2.67-2.52-2.1-2.52-2.1c-2.52,0-1.96-1.4-1.96-1.4c0.42-3.37-0.42-4.63-0.42-4.63c-0.42-0.56-3.09-0.28-3.09-0.28 c-0.84,0.56-2.1-1.4-2.1-1.4L93.28,205.5L93.28,205.5z M41.66,205.5c-2.95,2.38-7.15,1.26-7.15,1.26 c-3.93-0.14-5.19,0.14-5.19,0.14c-0.84,1.26-2.38,0.14-2.38,0.14c-0.28-0.28-1.4-0.28-1.4-0.28c-7.86,0.56-9.96-0.84-9.96-0.84 c-0.28-0.28-1.68-0.28-1.68-0.28c-0.14,0.28-0.84,1.12-0.84,1.12c-0.42,0.28-3.09,0.14-3.09,0.14c-1.4-0.14-1.68,0.84-1.68,0.84 l-0.14,3.51c0.14,2.1-0.42,1.68-0.42,1.68c-0.42,0.56-2.81,0.42-2.81,0.42c-1.96,0.14-1.68,3.09-1.68,3.09 c0.28,1.96,3.23,1.26,3.23,1.26c1.96,0.14,1.68,1.26,1.68,1.26c-0.14,0.84,0.14,12.2,0.14,12.2c-0.14,1.68-1.4,0.98-1.4,0.98 c-4.07-0.14-3.51,2.67-3.51,2.67c0.14,2.67,3.09,2.24,3.09,2.24c1.96,0,1.82,1.12,1.82,1.12c0.14,0.28-0.14,4.35-0.14,4.35 c0.28,1.96,2.1,1.4,2.1,1.4l14.59,0.28c4.21,3.09,5.19,0.14,5.19,0.14c0.14-0.28,0.84-0.28,0.84-0.28 c1.12,0.28,14.31,0.14,14.59,0.14c2.38,0.56,2.38-1.68,2.38-1.68l0.14-4.35c0.14-0.84,1.4-0.98,1.4-0.98 c3.93,0.56,3.65-2.67,3.65-2.67c-0.14-2.52-2.81-2.38-2.81-2.38c-2.1,0.14-1.96-1.4-1.96-1.4c0.14-1.12,0.14-10.94,0.14-10.94 c-0.14-0.56,0.56-1.54,0.56-1.54c4.77,0.42,3.93-2.67,3.93-2.67c0.28-2.67-2.52-2.1-2.52-2.1c-2.52,0-1.96-1.4-1.96-1.4 c0.42-3.37-0.42-4.63-0.42-4.63c-0.42-0.56-3.09-0.28-3.09-0.28c-0.84,0.56-2.1-1.4-2.1-1.4L41.66,205.5L41.66,205.5z M35.77,256.28c-0.56,0-1.12,1.12-1.12,1.12c-0.84,1.4-3.65,0.56-3.65,0.56c-2.1,0.56-1.82,1.68-1.82,1.68l0.14,4.21 c-0.14,1.12-1.68,0.7-1.68,0.7c-2.81-0.56-3.79,1.26-3.79,1.26c-0.56,0.84-0.14,1.96-0.14,1.96c0.42,1.68,2.52,1.54,2.52,1.54 c0.84,0.56,1.96,0.14,1.96,0.14c1.12,0,0.84,1.26,0.84,1.26c0.14,0.7-0.14,10.94-0.14,10.94c0,0.84-0.14,1.4-0.14,1.4 c0,0.84-2.81,0.28-2.81,0.28c-1.82,0.14-2.38,1.96-2.38,1.96c-0.56,1.26,1.26,2.52,1.26,2.52c0.14,0.28,3.51,0.56,3.51,0.56 c0.84,0.14,0.84,1.4,0.84,1.4c-0.14,0.56,0.28,4.91,0.28,4.91c0.28,1.12,3.65,0.84,3.65,0.84s15.99-0.28,16.27-0.14 c0.28,0.14,1.26-0.14,1.26-0.14l1.26,0.98c1.54,1.26,3.51-0.42,3.51-0.42l1.68-0.28c0.56,0.14,15.29-0.14,15.29-0.14 c1.26,0.28,1.82-0.14,1.82-0.14l2.38-0.14c1.68,0,1.54-2.1,1.54-2.1v-3.09c0.14-1.68,0.98-1.68,0.98-1.68l2.24-0.42l0.98-0.56 c1.4-0.42,0.7-2.95,0.7-2.95c-0.84-1.54-3.51-1.26-3.51-1.26c-1.82,0.14-1.68-0.98-1.68-0.98l0.28-11.36 c0.14-0.98,0.7-1.68,0.7-1.68c0.56,0.14,2.38-0.42,2.38-0.42c1.82-0.42,1.68-2.1,1.68-2.1c0.28-1.26-1.82-2.1-1.82-2.1h-2.52 c-0.84-0.14-0.56-3.37-0.56-3.37v-1.54c0.14-1.26-1.68-1.82-1.68-1.82l-3.23,0.14c-0.28-0.56-1.54-0.84-1.54-0.84 C70.98,256.7,70,256.7,70,256.7c-2.38,1.68-8,1.26-8,1.26l-5.75-0.42l-2.1,0.42c-0.14,0.42-0.84,0.7-0.84,0.7l-0.56-0.14 c-0.56-0.56-2.38-0.84-2.38-0.84c-0.14-0.28-8,0.28-8,0.28c-4.49,0.14-6.17-1.4-6.17-1.4C36.19,256.28,36.05,256.28,35.77,256.28 L35.77,256.28z" transform="matrix(0.9999999999999999, 0, 0, 0.9999999999999999, 5.1731153305339035, 71.41461288056689)"/>
  <path id="XMLID_59_" class="st1" d="M15.85,207.04c0,0-0.98,0.14-0.98,0.84l-0.28,27.77c0,0-0.14,1.26,2.1,1.54 c0,0,2.52,0.28,3.09,0c0,0,1.68-0.14,5.89,0.14c0,0,0.98,0.98,1.12-0.28c0,0,0.7-22.58,0.28-27.21c0,0-0.14-1.96-1.54-2.1 c0,0-6.59,0.56-7.15,0L15.85,207.04L15.85,207.04z M67.33,207.04c0,0-0.98,0.14-0.98,0.84l-0.28,27.77c0,0-0.14,1.26,2.1,1.54 c0,0,2.52,0.28,3.09,0c0,0,1.68-0.14,5.89,0.14c0,0,0.98,0.98,1.12-0.28c0,0,0.7-22.58,0.28-27.21c0,0-0.14-1.96-1.54-2.1 c0,0-6.59,0.56-7.15,0L67.33,207.04L67.33,207.04z M40.82,207.04c-0.28,0-0.56,0.14-0.84,0.28c0,0,0.14,0.7-8,0.42 c0,0-3.09-0.14-3.23,1.26c0,0-0.28,13.05-0.14,13.47l-0.14,10.94l-0.42,3.79c0,0,0.56,0.84,0.98,0.28c0,0,2.81-0.7,4.49-0.42 c0,0,5.61,0.56,6.73-0.28c0,0,0.84,0.42,1.12-0.98c0,0,0.28-24.27,0.14-24.69c0,0,0.28-3.51,0.14-3.79 C41.52,207.47,41.38,207.04,40.82,207.04L40.82,207.04z M92.3,207.18c-0.28,0-0.56,0.14-0.84,0.28c0,0,0.14,0.7-8,0.42 c0,0-3.09-0.14-3.23,1.26c0,0-0.28,13.05-0.14,13.47l-0.14,10.94l-0.42,3.79c0,0,0.56,0.84,0.98,0.28c0,0,2.81-0.7,4.49-0.42 c0,0,5.61,0.56,6.73-0.42c0,0,0.84,0.42,1.12-0.98c0,0,0.28-24.27,0.14-24.69c0,0,0.28-3.51,0.14-3.79 C93,207.61,93,207.04,92.3,207.18L92.3,207.18z M11.08,207.89c-0.42,0-0.84,0.28-1.54,0.84l-0.14,3.51c0,0,0,1.96-1.82,1.96 c0,0-2.1-0.14-3.09,0.84c0,0-0.56,1.96,1.4,1.54c0,0,3.09,0,3.23,1.26l-0.14,13.05c0,0,0.7,2.1-1.68,2.1c0,0-2.95-0.14-2.81,1.68 c0,0,0.56,1.54,3.09,0.98c0,0,1.82,0.28,1.68,2.1v3.37c0,0-0.14,1.26,1.54,1.4h13.47c0,0,0.7,0.14,0.7-0.84c0,0-0.14-0.7-1.12-0.7 l-11.22-0.14c0,0-1.82,0.56-1.96-2.1c0,0,0.14-24.41,0.14-24.83c-0.14-0.42,0.14,0.28,0.14,0.28s-0.28-4.21,0.84-6.03 C11.78,208.45,11.64,207.89,11.08,207.89L11.08,207.89z M62.56,207.89c-0.42,0-0.84,0.28-1.68,0.84l-0.14,3.51 c0,0,0,1.96-1.82,1.96c0,0-2.1-0.14-3.09,0.84c0,0-0.56,1.96,1.4,1.54c0,0,3.09,0,3.23,1.26l-0.14,13.05c0,0,0.7,2.1-1.68,2.1 c0,0-2.95-0.14-2.81,1.68c0,0,0.56,1.54,3.09,0.98c0,0,1.82,0.28,1.68,2.1v3.23c0,0-0.14,1.26,1.54,1.4h13.47 c0,0,0.7,0.14,0.7-0.84c0,0-0.14-0.7-1.12-0.7l-11.22-0.14c0,0-1.82,0.56-1.96-2.1c0,0,0.14-24.41,0.14-24.83 c-0.14-0.42,0.14,0.42,0.14,0.42s-0.28-4.21,0.84-6.03C63.26,208.45,63.12,207.89,62.56,207.89L62.56,207.89z M45.87,208.03 c-0.98-0.14-0.98,0.98-0.98,0.98c0.28,0.28,0.56,1.54,0.56,1.54c0.14,2.95,0,6.31,0,9.4c0,10.38-0.42,19.78-0.42,19.78 c0,2.1-1.12,1.54-1.12,1.54l-12.2,0.14c-1.26,0-1.26,0.7-1.26,0.7c0.14,0.98,1.4,0.56,1.4,0.56c1.12,0.28,13.19,0.14,13.19,0.14 c1.82,0.28,1.68-2.1,1.68-2.1c0.28-4.07,0.56-4.49,0.56-4.49c0.42-0.28,2.38-0.28,2.38-0.28c3.23,0.14,1.68-1.96,1.68-1.96 c-0.42-0.7-2.52-0.56-2.52-0.56c-2.1,0.14-1.96-2.1-1.96-2.1l0.28-12.62c-0.28-0.98,0.56-1.54,0.56-1.54h1.96 c2.81,0.14,2.1-1.54,2.1-1.54c-0.14-0.84-2.38-1.26-2.38-1.26c-2.38,0.28-2.1-0.98-2.1-0.98l-0.14-3.09 c0.28-1.96-0.98-2.1-0.98-2.1L45.87,208.03L45.87,208.03z M97.35,208.03c-0.98-0.14-0.98,0.98-0.98,0.98 c0.28,0.28,0.56,1.54,0.56,1.54c0.14,2.95,0,6.31,0,9.4c0,10.38-0.42,19.78-0.42,19.78c0,2.1-1.12,1.4-1.12,1.4l-12.06,0.14 c-1.26,0-1.26,0.7-1.26,0.7c0.14,0.98,1.4,0.56,1.4,0.56c1.12,0.28,13.19,0.14,13.19,0.14c1.82,0.28,1.68-2.1,1.68-2.1 c0.28-4.07,0.56-4.49,0.56-4.49c0.42-0.42,2.38-0.28,2.38-0.28c3.23,0.14,1.68-1.96,1.68-1.96c-0.42-0.7-2.52-0.56-2.52-0.56 c-2.1,0.14-1.96-2.1-1.96-2.1l0.28-12.62c-0.28-0.98,0.56-1.54,0.56-1.54h1.96c2.81,0.14,2.1-1.54,2.1-1.54 c-0.14-0.84-2.38-1.26-2.38-1.26c-2.38,0.42-2.1-0.98-2.1-0.98l-0.14-3.09c0.28-1.96-0.98-2.1-0.98-2.1L97.35,208.03L97.35,208.03z M43.06,208.31c-0.28,0-0.42,0.14-0.7,0.56l-0.14,27.35c0,0,0.7,2.38,1.82,2.1c0,0,0.14-0.56,0.28-1.4l0.28-26.09 C44.61,210.97,44.05,208.17,43.06,208.31L43.06,208.31z M94.68,208.31c-0.28,0-0.42,0.14-0.7,0.56l-0.14,27.35 c0,0,0.7,2.38,1.82,2.24c0,0,0.14-0.56,0.28-1.4l0.28-26.09C96.23,210.97,95.67,208.17,94.68,208.31L94.68,208.31z M65.09,208.59 c-1.68-0.14-1.82,3.09-1.82,3.09l-0.14,25.95c0.14,1.26,0.56,0.98,0.56,0.98c1.68-0.98,1.4-2.81,1.4-2.81s0.28-24.55,0.28-24.97 C65.23,210.27,65.09,208.59,65.09,208.59L65.09,208.59z M13.61,208.59c-1.68-0.14-1.82,3.09-1.82,3.09l-0.14,25.95 c0.14,1.26,0.56,0.98,0.56,0.98c1.68-0.98,1.4-2.81,1.4-2.81s0.28-24.55,0.28-24.97C13.75,210.27,13.61,208.59,13.61,208.59 L13.61,208.59z M66.35,237.76c-0.28,0-0.84,0-1.54,1.12c0,0-0.28,1.26,0.98,0.98h8.98l2.38,0.56c0,0,2.52-0.56,0-1.96 c0,0-8,0.14-8.7-0.14c0,0-1.68-0.42-1.96-0.56H66.35L66.35,237.76z M14.59,237.9c-0.28,0-0.98,0-1.54,1.12c0,0-0.28,1.26,0.98,0.98 H23l2.38,0.56c0,0,2.52-0.56,0-1.96c0,0-8,0.14-8.7-0.14c0,0-1.68-0.42-1.96-0.56H14.59L14.59,237.9z M93.56,238.04 c-0.56,0-1.26,0.14-1.26,0.14c-1.4,0.98-10.1,0.28-10.1,0.28c-0.56,0-1.26,0.84-1.26,0.84c-0.28,1.54,2.38,0.98,2.38,0.98 c0.56,0,10.24-0.14,10.24-0.14c1.54,0.42,1.68-0.28,1.68-0.28c0-0.56-1.26-1.68-1.26-1.68L93.56,238.04L93.56,238.04z M41.8,238.19 c-0.56,0-1.26,0.14-1.26,0.14c-1.4,0.98-10.1,0.28-10.1,0.28c-0.56,0-1.26,0.84-1.26,0.84c-0.28,1.54,2.38,0.98,2.38,0.98 c0.56,0,10.38-0.14,10.38-0.14c1.54,0.42,1.68-0.42,1.68-0.42c0-0.56-1.26-1.68-1.26-1.68H41.8L41.8,238.19z M79.96,240.01h-0.28 c0,0-1.68,0-1.54,2.1c0,0,0.14,1.68,1.96,1.68c0,0,1.54-0.28,1.4-1.96C81.36,241.97,80.66,240.29,79.96,240.01L79.96,240.01z M28.2,240.29h-0.28c0,0-1.68,0-1.54,2.1c0,0,0.14,1.68,1.96,1.68c0,0,1.54-0.28,1.4-1.96C29.6,242.11,28.9,240.43,28.2,240.29 L28.2,240.29z M70,257.96c-3.93,1.96-4.21,0.84-5.47,1.12c-1.26,0.28-6.03,0-6.31-0.14c-0.42-0.14-2.52,0.14-2.52,0.14 c-1.4,0.14-1.68,1.26-1.68,1.26l-0.14,5.75l-0.28,1.26l-0.56,0.42l-0.56-1.68l0.14-5.33c-0.56-1.96-2.24-1.54-2.24-1.54 c-1.12-0.28-5.61,0-5.61,0c-1.96,0.28-4.07-0.14-4.07-0.14c-2.81,0.42-3.37-0.56-3.37-0.56c-1.4-0.56-1.4,0.28-1.4,0.28 c0.28,0.7,0.14,2.1,0.14,2.1c0.14,0.7-0.14,6.73-0.14,6.73c-0.14,0.56,0,7.15,0,7.15c0.28,0.42-0.14,12.34-0.14,12.34 c0.28,1.54,3.23,1.4,3.23,1.4c0.28,0.28,11.36,0.14,11.36,0.14c1.82,0.84,1.96-0.14,1.96-0.14c0.42-2.67,0-7.72,0.14-8.7 c0.28-1.96,0.14-4.07,0.14-4.07l0.84-0.14l0.14,4.35c0.28,3.93,0,8,0,8c0,1.12,0.42,1.26,0.42,1.26c2.1-0.98,3.93-0.84,3.93-0.84 c11.92,0.28,10.1,0.14,10.1,0.14c3.09-0.14,2.81-2.1,2.81-2.1l-0.14-4.35c0.28-0.98,0.28-14.45,0.28-14.45c-0.42-1.4,0-8.7,0-8.7 C70.98,258.1,70,257.96,70,257.96L70,257.96z M75.75,259.09c-0.42,0-0.84,0.14-0.84,0.14s0.14,0-0.14-0.14 c-0.28-0.14-0.28,0.56-0.28,0.56c1.12,1.12,0.84,2.95,0.84,2.95c-0.14,23.15,0,23.99,0,23.99l-0.28,0.84c0,0-0.14,2.38-0.14,3.09 c0,0.7-0.42,1.26-0.42,1.26l-0.98,0.28c-0.7,0.56-5.05,0.28-5.05,0.28s-10.1,0.28-10.8,0.14c-0.7-0.14-1.68,0.28-1.68,0.28 c-0.28,1.26,0.98,1.4,0.98,1.4c2.38-0.14,17.25-0.14,17.25-0.14c2.38,0.14,2.52-0.98,2.52-0.98c0.42-0.28,0.14-2.38,0.14-2.38 c0.14-0.42,0.42-2.81,0.42-2.81c-0.28-0.98,3.37-0.98,3.37-0.98c1.96-0.14,1.26-1.82,1.26-1.82c0-0.84-2.67-0.7-2.67-0.7 c-2.1,0.14-2.1-1.26-2.1-1.26s0.28-11.78,0.14-13.47c-0.14-1.68,1.26-1.96,1.26-1.96l2.1-0.14c1.54,0.28,1.54-1.26,1.54-1.26 c0-0.7-2.24-0.98-2.24-0.98c-0.98,0.28-1.54-0.28-1.54-0.28c-1.26,0-1.12-2.52-1.12-2.52c0.56-1.26-0.14-3.23-0.14-3.23 C76.73,259.09,76.17,259.09,75.75,259.09L75.75,259.09z M31.28,259.23c-0.98,0.14-0.98,4.63-0.98,4.63 c-0.14,2.1-1.96,1.82-1.96,1.82c-2.52-0.28-3.37,1.26-3.37,1.26c-0.14,1.4,2.38,1.4,2.38,1.4c0.42-0.14,1.82-0.14,1.82-0.14 c1.54,0.14,1.26,2.38,1.26,2.38l-0.28,12.76c0.42,1.68-1.68,1.4-1.68,1.4c-2.95-0.14-3.37,1.12-3.37,1.12 c0.14,1.82,3.09,1.26,3.09,1.26c2.1,0.28,1.96,1.54,1.96,1.54c0.14,0.42,0.14,2.81,0.14,2.81c0,2.52,0.7,2.67,0.7,2.67 c0.28,0.56,4.63,0.28,4.63,0.28c6.45,0.28,13.75-0.42,13.75-0.42c0.98,0.14,0.98-0.42,0.98-0.42c0.56-0.7-0.84-0.98-0.84-0.98 c-0.98-0.28-16.13,0.14-16.13,0.14c-1.54,0.56-1.4-1.54-1.4-1.54v-4.63c-0.14-0.7,0-2.81,0-2.81s0.14-10.94,0.14-11.36 c-0.14-0.42,0-4.21,0-4.21l0.14-5.75c-0.14-0.42,0.98-2.38,0.98-2.38C33.53,259.23,31.28,259.23,31.28,259.23L31.28,259.23z M72.66,259.51c-0.28,0-0.56,0.14-0.56,0.84L71.96,287l-0.14,0.56c0,0,0.98,1.96,1.54,2.24c0,0,0.98,1.12,0.7-0.84L74.2,264 c0,0-0.28-0.84,0-2.24l-0.98-1.96L72.66,259.51L72.66,259.51z M34.23,259.65c-1.26,0.84-1.26,2.81-1.26,2.81l-0.28,26.65 c0,1.4,0.84,0.56,0.84,0.56c1.54-1.12,1.26-2.81,1.26-2.81l0.14-26.09C34.93,259.65,34.23,259.65,34.23,259.65L34.23,259.65z M35.49,288.54l-0.7,0.56c-1.68,1.96-0.56,2.1-0.56,2.1l1.54-0.14l14.17,0.14c1.54,0.28,1.68-0.7,1.68-0.7 c0.14-0.7-1.26-0.84-1.26-0.84l-11.78-0.14C36.75,289.81,35.49,288.54,35.49,288.54L35.49,288.54z M71.26,288.82h-0.28 c-0.56,0.84-2.67,0.84-2.67,0.84s1.54-0.28-0.98,0.14c-2.38,0.42-10.38-0.14-10.38-0.14c-0.56-0.14-2.1,0.84-2.1,0.84 c-0.28,1.4,2.38,0.98,2.38,0.98c0.42-0.14,14.59-0.14,14.59-0.14c1.54,0.14,1.4-0.84,1.4-0.84l-1.26-1.4L71.26,288.82L71.26,288.82 z M53.02,291.21c-1.26,0.28-1.68,1.68-1.4,2.81c0.28,1.12,1.26,1.4,2.1,1.26c0.84-0.14,0.84-0.98,0.84-2.38 C54.57,291.35,53.02,291.21,53.02,291.21z" style="fill: rgb(255, 255, 255);" transform="matrix(0.9999999999999999, 0, 0, 0.9999999999999999, 5.1731153305339035, 71.41461288056689)"/>
  <path id="XMLID_69_" d="M84.73,216.3c0,0-1.68,0.14-1.54,0.84l0.84,1.68v8.56c0,0-0.28,1.54-1.12,1.96c0,0-0.28,0.84,0.56,0.98 l2.52-0.14c0,0,0.98,0.14,0.98-0.56c0,0-0.7-0.84-0.84-1.26c0,0-0.14-8.28,0-9.12l0.28-1.12c0,0,0.98-0.56,0.42-1.4 c0,0-0.56-0.28-1.26-0.14L84.73,216.3L84.73,216.3z M35.91,216.3h-0.28c0,0-2.95,0.42-3.37,0.14l-2.38,0.28c0,0-0.28,0.84,0.7,1.26 c0,0,0.28,0.14,0.28,0.56l-0.14,9.12l-0.28,0.7c0,0-0.84,1.12-0.28,1.26c0,0-0.84,0.56,5.61,0.56c0,0,2.38,0.42,1.82-2.67 c0,0-0.28-1.12-1.12,0.56c0,0-0.28,1.4-3.37,0.98c0,0-0.7-0.56-0.7-1.26v-3.79c0,0-0.14-0.98,1.4-0.84c0,0,1.68,0.98,1.96,0.56 c0,0,0.56-1.4,0-2.24c0,0-0.84-0.14-0.84,0.28c0,0-0.56,0.98-1.96,0.42c0,0-0.7-1.4-0.28-2.52c0,0-0.14-2.1,1.26-1.96 c0,0,1.68,0.28,1.96,0.84c0,0,0.42,0.98,0.84-0.14l-0.42-1.54L35.91,216.3L35.91,216.3z M69.58,216.3c-0.42,0-0.84,0-0.84,0.28 c0,0-0.14,0.84,0.42,0.84c0,0,0.7,0.84,0.7,1.26l-0.14,3.65l0.14,5.05c0,0-0.14,1.12-0.84,1.54c0,0-0.56,0.84,0,1.12l2.81,0.28 c0,0,0.84-0.56,0.42-1.26l-0.84-1.26l0.14-2.67c0,0,0.56-0.56,0.84-0.28l3.09,4.91c0,0,1.4,0.98,1.68,0c0,0,0.14-0.42-0.28-0.7 l-2.52-3.93l0.14-1.4c0,0,2.67-0.98,2.38-3.51c0,0,0.56-2.52-2.95-3.65h-3.65C70.28,216.44,70,216.44,69.58,216.3L69.58,216.3z M16.41,216.44c-1.26,0.14-0.56,0.98-0.56,0.98l1.12,0.84c0.14,0.42,3.51,10.94,3.51,10.94c1.54,1.4,1.68-0.28,1.68-0.28 c0.98-1.68,2.95-10.1,2.95-10.1l0.84-1.68c-0.28-0.7-2.1-0.56-2.1-0.56c-0.84,0.14-0.28,0.98-0.28,0.98l0.56,1.82l-1.68,6.17 c-0.56,1.4-1.12-0.56-1.12-0.56c-1.82-5.33-1.96-6.59-1.96-6.59c1.4-0.98,0.28-1.82,0.28-1.82L16.41,216.44L16.41,216.44z M72.8,217.56c0.42,0,0.98,0,1.12,0.28c0.28,0.56,2.52,2.38,0.28,4.49c0,0-0.98,1.82-2.67,0.56c0,0,0-2.67-0.14-4.49l0.28-0.56 C71.82,217.71,72.38,217.56,72.8,217.56L72.8,217.56z M53.16,265.12c-0.42-0.14-0.56,0.7-0.84,1.26c0,0-2.81,11.22-3.23,11.92 c0,0-0.28,0.98-1.26,1.26c0,0-0.56,0.56,0.28,0.84c0,0,1.68,0.56,2.1-0.14c0,0,0.56,0.42,0-1.82c0,0,0.42-2.52,1.4-2.52 c0,0,0.56,0.28,0.7,0.7c0.14,0.42,0.98,0,0.98,0s0.56-0.84,0.98-0.56c0,0,0.84,1.12,0.84,1.82c0,0,0.28,1.68-0.14,2.1 c0,0-0.42,0.28,0.56,0.56c0,0,1.96,0.28,2.67,0.14c0,0,1.54-0.42,0-0.98c0,0-0.84-0.7-1.26-1.54c0,0-1.54-6.73-3.23-11.22 c0,0-0.14-0.84-0.7-1.26L53.16,265.12L53.16,265.12z M40.54,266.1l-0.56,0.14l-0.84,2.1v0.7c0.56,1.4,0.84,0.14,0.84,0.14 l1.26-1.26l0.98-0.14c0.56,0.28,0.42,1.26,0.42,1.26c-0.14,0.42-0.14,7.72-0.14,7.72c0.14,1.54-0.28,2.1-0.28,2.1 c-1.26,1.54,0,1.54,0,1.54c0.56-0.14,2.67,0.14,2.67,0.14c0.98,0.14,0.56-1.12,0.56-1.12c-0.56-0.28-0.84-1.26-0.84-1.26l0.14-1.4 c0.28-0.84,0-7.29,0-7.29c0.14-1.96,1.26-1.4,1.26-1.4c0.28,0.98,0.98,1.26,0.98,1.26c1.12-0.28,0.84-2.24,0.84-2.24 c0.14-0.84-0.42-0.84-0.42-0.84l-1.4,0.7h-4.07C41.24,266.66,40.54,266.1,40.54,266.1L40.54,266.1z M66.35,266.66 c-0.14,0-0.56,0-0.98,0.42c0,0-1.12,0.42-1.4,0c0,0-3.23-0.28-3.37,3.23c0,0-0.42,2.38,3.23,3.93c0,0,2.67,1.26,2.52,2.95 c0,0-0.42,2.95-3.23,1.54c0,0-1.4-0.7-1.26-1.54c0,0-0.42-0.98-0.98-0.84c0,0-0.56,0.14-0.28,3.09c0,0,0,1.12,1.26,0l0.7,0.14 c0,0,2.38,1.96,4.35-0.42c0,0,2.1-1.96,0.56-4.35c0,0-1.12-1.68-3.09-2.52c0,0-1.96-0.84-2.38-2.38c0,0,0.56-2.67,2.95-1.26 c0,0,0.84,0.98,1.4,1.26c0,0,0.7,0,0.56-1.54l-0.14-1.26C66.77,267.08,66.63,266.66,66.35,266.66L66.35,266.66z M53.02,270.31 l0.42,0.56c0,0,0.98,2.67,0.98,3.09c0,0.42-0.14,0.84-0.56,0.84c-0.56,0-1.96-0.14-1.96-0.14l-0.56-0.84c0,0,0.56-2.38,0.7-2.81 L53.02,270.31L53.02,270.31z" transform="matrix(0.9999999999999999, 0, 0, 0.9999999999999999, 5.1731153305339035, 71.41461288056689)"/>
</svg>